<svg width="14" height="16" viewBox="0 0 14 16" fill="none" xmlns="http://www.w3.org/2000/svg">
<path fill-rule="evenodd" clip-rule="evenodd" d="M2.31045 3.35578C3.64681 3.22082 4.98334 3.15332 6.31996 3.15332C8.56355 3.15332 10.8133 3.26751 13.0493 3.48909C13.3241 3.51632 13.5248 3.76117 13.4975 4.03596C13.4703 4.31076 13.2254 4.51145 12.9507 4.48422C10.7466 4.26579 8.52971 4.15332 6.31996 4.15332C5.01683 4.15332 3.7136 4.21913 2.41021 4.35079L2.40875 4.35093L1.04875 4.48427C0.773921 4.51121 0.529289 4.31026 0.502346 4.03544C0.475402 3.76061 0.676349 3.51598 0.951174 3.48904L2.31045 3.35578Z" fill="red"/>
<path fill-rule="evenodd" clip-rule="evenodd" d="M5.30635 2.52308L5.15972 3.39618C5.11399 3.66851 4.85615 3.8522 4.58382 3.80647C4.31149 3.76073 4.1278 3.50289 4.17353 3.23056L4.3202 2.35723C4.32276 2.34202 4.3254 2.32609 4.32807 2.30996C4.37398 2.0327 4.44132 1.62596 4.71245 1.3185C5.02849 0.960119 5.51069 0.833374 6.12663 0.833374H7.8733C8.49673 0.833374 8.97844 0.970307 9.2926 1.33234C9.5641 1.64521 9.62976 2.05341 9.67361 2.32598C9.67574 2.33924 9.67782 2.35218 9.67987 2.36478L9.82629 3.22994C9.87236 3.50222 9.689 3.76029 9.41672 3.80636C9.14445 3.85244 8.88638 3.66907 8.8403 3.3968L8.69314 2.52717C8.63737 2.18515 8.6021 2.06239 8.53732 1.98774C8.50148 1.94644 8.37653 1.83337 7.8733 1.83337H6.12663C5.6159 1.83337 5.49476 1.9433 5.46247 1.97991C5.40106 2.04955 5.36641 2.16655 5.30635 2.52308Z" fill="red"/>
<path fill-rule="evenodd" clip-rule="evenodd" d="M11.5988 5.59444C11.8744 5.61223 12.0834 5.85004 12.0656 6.12561L11.6321 12.8417L11.6312 12.8543C11.6136 13.1052 11.5943 13.381 11.5426 13.6376C11.489 13.9038 11.3946 14.1846 11.2032 14.4338C10.8024 14.9556 10.1203 15.1667 9.13996 15.1667H4.85996C3.87958 15.1667 3.19754 14.9556 2.79676 14.4338C2.60536 14.1846 2.51089 13.9038 2.4573 13.6376C2.40561 13.381 2.3863 13.1052 2.36873 12.8543L2.36766 12.8389L1.93433 6.12561C1.91654 5.85004 2.12552 5.61223 2.40108 5.59444C2.67665 5.57665 2.91447 5.78563 2.93225 6.06119L3.3654 12.7718C3.36543 12.7722 3.36547 12.7727 3.3655 12.7732C3.38431 13.0417 3.40024 13.2546 3.43762 13.4402C3.47402 13.621 3.52456 13.7397 3.58982 13.8247C3.70238 13.9712 3.98033 14.1667 4.85996 14.1667H9.13996C10.0196 14.1667 10.2975 13.9712 10.4101 13.8247C10.4754 13.7397 10.5259 13.621 10.5623 13.4402C10.5997 13.2546 10.6156 13.0417 10.6344 12.7732C10.6345 12.7727 10.6345 12.7722 10.6345 12.7718L11.0677 6.06119C11.0855 5.78563 11.3233 5.57665 11.5988 5.59444Z" fill="red"/>
<path fill-rule="evenodd" clip-rule="evenodd" d="M5.38663 11C5.38663 10.7239 5.61048 10.5 5.88663 10.5H8.10663C8.38277 10.5 8.60663 10.7239 8.60663 11C8.60663 11.2761 8.38277 11.5 8.10663 11.5H5.88663C5.61048 11.5 5.38663 11.2761 5.38663 11Z" fill="red"/>
<path fill-rule="evenodd" clip-rule="evenodd" d="M4.8333 8.33337C4.8333 8.05723 5.05716 7.83337 5.3333 7.83337H8.66663C8.94277 7.83337 9.16663 8.05723 9.16663 8.33337C9.16663 8.60952 8.94277 8.83337 8.66663 8.83337H5.3333C5.05716 8.83337 4.8333 8.60952 4.8333 8.33337Z" fill="red"/>
</svg>
